<?xml version="1.0" encoding="iso-8859-1"?>
<!-- Generator: Adobe Illustrator 19.0.0, SVG Export Plug-In . SVG Version: 6.00 Build 0)  -->
<svg version="1.1" id="Layer_1" xmlns="http://www.w3.org/2000/svg" xmlns:xlink="http://www.w3.org/1999/xlink" x="0px" y="0px"
	 viewBox="0 0 512 512" style="enable-background:new 0 0 512 512;" xml:space="preserve">
<path style="fill:#F5B96E;" d="M489.46,180.527L489.46,180.527c-9.611-9.613-15.01-22.648-15.011-36.241l0,0
	c-0.002-20.731-12.49-39.42-31.642-47.355l0,0c-12.63-5.233-22.649-15.295-27.827-27.954c-7.855-19.206-26.944-31.426-47.695-31.426
	h-0.082c-13.526,0-26.29-5.66-35.899-15.179c-14.661-14.523-36.611-18.844-55.691-10.943l0,0c-12.559,5.2-26.668,5.2-39.227,0l0,0
	c-19.08-7.901-41.03-3.58-55.691,10.943c-9.609,9.519-22.373,15.179-35.899,15.179h-0.082c-20.751,0-39.839,12.22-47.695,31.426
	c-5.178,12.659-15.197,22.721-27.826,27.954l0,0c-19.152,7.935-31.64,26.625-31.642,47.355l0,0
	c-0.001,13.593-5.401,26.628-15.012,36.241l0,0c-14.657,14.66-19.042,36.706-11.111,55.859l0,0c5.2,12.558,5.2,26.668,0,39.227l0,0
	c-7.931,19.154-3.546,41.199,11.111,55.859l0,0c9.611,9.612,15.01,22.648,15.012,36.241l0,0c0.002,20.731,12.49,39.42,31.642,47.355
	l0,0c12.629,5.233,22.649,15.295,27.826,27.954c7.855,19.206,26.944,31.426,47.695,31.426h0.082c13.526,0,26.29,5.66,35.899,15.179
	c14.661,14.523,36.611,18.844,55.691,10.943l0,0c12.558-5.201,26.668-5.201,39.227,0l0,0c19.08,7.901,41.03,3.58,55.691-10.943
	c9.609-9.519,22.373-15.179,35.899-15.179h0.661c20.834,0,39.234-12.803,47.351-31.991c1.2-2.837,2.645-5.541,4.309-8.086
	c3.399-5.197,2.814-12.034-1.578-16.425L256,256h229.029c6.097,0,11.454-4.229,12.667-10.204c0.65-3.199,1.608-6.35,2.875-9.409l0,0
	C508.503,217.233,504.118,195.188,489.46,180.527z"/>
<path style="opacity:0.15;enable-background:new    ;" d="M489.46,180.527L489.46,180.527c-9.611-9.613-15.01-22.648-15.011-36.241
	l0,0c-0.002-20.731-12.49-39.42-31.642-47.355l0,0c-12.63-5.233-22.649-15.295-27.827-27.954
	c-7.855-19.206-26.944-31.426-47.695-31.426h-0.082c-13.526,0-26.29-5.66-35.899-15.179c-14.661-14.523-36.611-18.844-55.691-10.943
	l0,0c-12.559,5.2-26.668,5.2-39.227,0l0,0c-19.08-7.901-41.03-3.58-55.691,10.943c-9.609,9.519-22.373,15.179-35.899,15.179h-0.082
	c-20.751,0-39.839,12.22-47.695,31.426c-5.178,12.659-15.197,22.721-27.826,27.954l0,0c-19.152,7.935-31.64,26.625-31.642,47.355
	l0,0c-0.001,13.593-5.401,26.628-15.012,36.241l0,0c-14.657,14.66-19.042,36.706-11.111,55.859l0,0c5.2,12.558,5.2,26.668,0,39.227
	l0,0c-7.931,19.154-3.546,41.199,11.111,55.859l0,0c9.611,9.612,15.01,22.648,15.012,36.241l0,0
	c0.002,20.731,12.49,39.42,31.642,47.355l0,0c12.629,5.233,22.649,15.295,27.826,27.954c7.855,19.206,26.944,31.426,47.695,31.426
	h0.082c13.526,0,26.29,5.66,35.899,15.179c14.661,14.523,36.611,18.844,55.691,10.943l0,0c12.558-5.201,26.668-5.201,39.227,0l0,0
	c19.08,7.901,41.03,3.58,55.691-10.943c9.609-9.519,22.373-15.179,35.899-15.179h0.661c20.834,0,39.234-12.803,47.351-31.991
	c1.2-2.837,2.645-5.541,4.309-8.086c3.399-5.197,2.814-12.034-1.578-16.425L256,256h229.029c6.097,0,11.454-4.229,12.667-10.204
	c0.65-3.199,1.608-6.35,2.875-9.409l0,0C508.503,217.233,504.118,195.188,489.46,180.527z"/>
<path style="opacity:0.1;enable-background:new    ;" d="M106.531,59.466c1.669-4.08,3.849-7.841,6.44-11.241
	c-6.932,5.289-12.516,12.352-15.951,20.752c-1.737,4.247-4.03,8.192-6.772,11.77C97.401,75.267,103.059,67.955,106.531,59.466z
	 M377.376,464.937h-0.661c-13.526,0-26.29,5.66-35.899,15.179c-14.661,14.523-36.611,18.844-55.691,10.943
	c-12.559-5.2-26.668-5.2-39.227,0l0,0c-19.08,7.901-41.03,3.58-55.691-10.943c-9.609-9.519-22.373-15.179-35.899-15.179h-0.082
	c-20.751,0-39.839-12.22-47.695-31.426c-5.178-12.659-15.197-22.721-27.827-27.954l0,0c-19.152-7.935-31.64-26.624-31.642-47.355
	l0,0c-0.001-13.593-5.401-26.628-15.012-36.241l0,0c-14.657-14.66-19.042-36.706-11.111-55.859l0,0c5.2-12.559,5.2-26.668,0-39.227
	l0,0c-7.931-19.154-3.546-41.199,11.111-55.859l0,0c9.611-9.612,15.01-22.648,15.012-36.241l0,0
	c0.001-11.53,3.869-22.426,10.594-31.194c-12.475,9.549-20.103,24.504-20.105,40.706l0,0c-0.001,13.593-5.401,26.628-15.012,36.241
	l0,0c-14.657,14.66-19.042,36.706-11.111,55.859l0,0c5.2,12.558,5.2,26.668,0,39.227l0,0c-7.931,19.154-3.546,41.199,11.111,55.859
	l0,0c9.611,9.612,15.01,22.648,15.012,36.241l0,0c0.002,20.731,12.49,39.42,31.642,47.355l0,0
	c12.629,5.233,22.649,15.295,27.826,27.954c7.855,19.206,26.944,31.426,47.695,31.426h0.082c13.526,0,26.29,5.66,35.899,15.179
	c14.661,14.523,36.61,18.844,55.691,10.943l0,0c12.558-5.201,26.668-5.201,39.227,0l0,0c19.08,7.901,41.03,3.58,55.691-10.943
	c9.609-9.519,22.373-15.179,35.899-15.179h0.661c16.151,0,30.836-7.698,40.405-20.097
	C399.582,461.047,388.85,464.937,377.376,464.937z"/>
<path style="fill:#F5B96E;" d="M459.07,256c0-112.152-90.918-203.07-203.07-203.07S52.93,143.848,52.93,256
	c0,112.153,90.918,203.07,203.07,203.07c56.076,0,106.844-22.729,143.592-59.478L256,256H459.07z"/>
<g>
	<path style="fill:#E3637B;" d="M167.931,351.569c-1.919,0-3.839-0.732-5.303-2.197c-2.928-2.928-2.928-7.677,0-10.605l32.73-32.73
		c2.929-2.928,7.677-2.928,10.606,0c2.928,2.928,2.928,7.677,0,10.605l-32.73,32.73
		C171.769,350.836,169.849,351.569,167.931,351.569z"/>
	<path style="fill:#E3637B;" d="M187.578,371.216c-1.919,0-3.839-0.732-5.303-2.197c-2.928-2.928-2.928-7.677,0-10.605l32.73-32.73
		c2.929-2.928,7.677-2.928,10.606,0c2.928,2.928,2.928,7.677,0,10.605l-32.73,32.73
		C191.416,370.484,189.497,371.216,187.578,371.216z"/>
	<path style="fill:#E3637B;" d="M311.34,208.16c-1.919,0-3.839-0.732-5.303-2.197c-2.928-2.928-2.928-7.677,0-10.605l32.73-32.73
		c2.929-2.928,7.677-2.928,10.606,0c2.928,2.928,2.928,7.677,0,10.605l-32.73,32.73C315.178,207.428,313.258,208.16,311.34,208.16z"
		/>
	<path style="fill:#E3637B;" d="M330.987,227.807c-1.919,0-3.839-0.732-5.303-2.197c-2.928-2.928-2.928-7.677,0-10.605l32.73-32.73
		c2.929-2.928,7.677-2.928,10.606,0c2.928,2.928,2.928,7.677,0,10.605l-32.73,32.73
		C334.825,227.075,332.906,227.807,330.987,227.807z"/>
</g>
<g>
	<path style="fill:#FFFFFF;" d="M131.277,288.133c-1.919,0-3.838-0.732-5.303-2.197c-2.928-2.928-2.928-7.677,0-10.605
		l17.365-17.365c2.929-2.928,7.677-2.928,10.606,0c2.928,2.928,2.928,7.677,0,10.605l-17.365,17.365
		C135.116,287.401,133.196,288.133,131.277,288.133z"/>
	<path style="fill:#FFFFFF;" d="M256.829,162.582c-1.92,0-3.838-0.732-5.303-2.197c-2.928-2.929-2.928-7.677,0.001-10.605
		l17.365-17.365c2.928-2.929,7.677-2.929,10.605,0s2.928,7.677-0.001,10.605l-17.365,17.365
		C260.668,161.849,258.748,162.582,256.829,162.582z"/>
</g>
<path d="M114.083,235.469c-2.928-2.929-7.677-2.929-10.605,0c-2.929,2.928-2.929,7.676-0.001,10.605l11.036,11.036
	c1.465,1.465,3.383,2.197,5.303,2.197c1.919,0,3.839-0.732,5.302-2.197c2.929-2.928,2.929-7.676,0.001-10.605L114.083,235.469z
	 M197.565,163.453c-2.928,2.928-2.928,7.677,0,10.605c1.292,1.291,2.003,3.009,2.003,4.835s-0.711,3.544-2.003,4.835
	c-2.667,2.666-7.005,2.665-9.67,0c-2.929-2.928-7.677-2.928-10.606,0c-1.464,1.464-2.196,3.383-2.196,5.303s0.732,3.839,2.196,5.303
	c2.667,2.666,2.667,7.005,0,9.671c-1.291,1.291-3.008,2.003-4.835,2.003c-1.826,0-3.543-0.711-4.834-2.003
	c-2.929-2.928-7.677-2.928-10.606,0c-2.928,2.928-2.928,7.677,0,10.605c4.125,4.124,9.608,6.396,15.441,6.396
	c5.833,0,11.317-2.271,15.442-6.396c3.766-3.767,5.988-8.667,6.344-13.931c5.265-0.357,10.165-2.578,13.932-6.345
	c4.124-4.124,6.395-9.608,6.395-15.44c0-5.833-2.271-11.317-6.395-15.441C205.242,160.525,200.494,160.525,197.565,163.453z
	 M494.763,175.225c-8.263-8.265-12.814-19.253-12.815-30.94c-0.003-23.848-14.241-45.155-36.271-54.282
	c-10.709-4.437-19.368-13.136-23.756-23.865c-8.966-21.921-30.411-36.086-54.718-36.086c-11.279,0-22.154-4.62-30.622-13.008
	C319.726,0.346,294.666-4.578,272.744,4.501c-10.798,4.47-22.691,4.47-33.489,0c-21.924-9.079-46.981-4.155-63.838,12.544
	c-8.468,8.388-19.343,13.008-30.704,13.008c-24.225,0-45.67,14.164-54.635,36.085C85.69,76.867,77.031,85.566,66.322,90.003
	c-22.031,9.128-36.268,30.435-36.27,54.283c-0.001,11.686-4.552,22.674-12.815,30.939C0.376,192.09-4.624,217.223,4.5,239.256
	c4.472,10.797,4.472,22.69,0,33.488c-9.124,22.033-4.124,47.166,12.737,64.031c8.263,8.265,12.814,19.253,12.815,30.939
	c0.002,23.848,14.24,45.155,36.27,54.283c10.709,4.437,19.368,13.135,23.756,23.864c8.966,21.922,30.411,36.086,54.718,36.086
	c11.279,0,22.154,4.62,30.622,13.008c11.244,11.139,26.135,17.038,41.313,17.038c7.576,0,15.226-1.471,22.525-4.494
	c10.798-4.47,22.691-4.47,33.489,0c21.924,9.078,46.981,4.155,63.838-12.544c8.468-8.388,19.343-13.008,30.622-13.008h0.66
	c23.564,0,44.861-14.354,54.258-36.569c1.016-2.399,2.253-4.722,3.679-6.902c5.334-8.157,4.26-19.022-2.552-25.833L274.105,263.499
	h210.924c9.69,0,18.108-6.818,20.016-16.211c0.556-2.74,1.383-5.442,2.455-8.032C516.624,217.223,511.625,192.09,494.763,175.225z
	 M256,248.501c-3.033,0-5.768,1.827-6.928,4.629c-1.161,2.802-0.519,6.028,1.625,8.172l138.18,138.18
	c-36.257,33.64-83.145,52.089-132.877,52.089c-107.838,0-195.57-87.733-195.57-195.571S148.162,60.429,256,60.429
	c105.326,0,191.456,83.697,195.413,188.072H256z M493.642,233.519c-1.439,3.477-2.548,7.105-3.295,10.784
	c-0.494,2.432-2.731,4.198-5.319,4.198H466.42C462.456,135.853,369.597,45.431,256,45.431C139.892,45.431,45.431,139.892,45.431,256
	S139.892,466.569,256,466.569c53.737,0,104.393-20.006,143.489-56.475l13.155,13.155c1.848,1.848,2.097,4.734,0.604,7.018
	c-1.916,2.928-3.578,6.047-4.94,9.269c-7.044,16.653-22.919,27.413-40.445,27.413h-0.66c-15.259,0-29.883,6.162-41.177,17.351
	c-12.553,12.436-31.215,16.101-47.545,9.342c-14.496-6.003-30.467-6.003-44.964,0c-16.33,6.76-34.991,3.094-47.545-9.342
	c-11.295-11.189-25.918-17.351-41.259-17.351c-18.107,0-34.104-10.506-40.753-26.766c-5.893-14.406-17.519-26.085-31.897-32.042
	c-16.408-6.799-27.012-22.667-27.014-40.428c-0.001-15.692-6.112-30.445-17.207-41.543c-12.557-12.56-16.281-31.279-9.485-47.688
	c6.003-14.498,6.003-30.467,0-44.966c-6.795-16.409-3.072-35.128,9.485-47.688c11.095-11.098,17.206-25.851,17.207-41.542
	c0.002-17.761,10.605-33.63,27.014-40.428c14.378-5.957,26.005-17.637,31.898-32.043c6.649-16.259,22.645-26.765,40.834-26.765
	c15.259,0,29.882-6.162,41.177-17.351c8.374-8.295,19.464-12.689,30.768-12.689c5.642,0,11.34,1.096,16.777,3.346
	c14.496,6.003,30.467,6.003,44.964,0c16.33-6.76,34.991-3.094,47.545,9.342c11.295,11.189,25.918,17.351,41.259,17.351
	c18.107,0,34.104,10.506,40.753,26.765c5.892,14.406,17.519,26.086,31.897,32.043c16.407,6.798,27.011,22.667,27.014,40.428
	c0.001,15.692,6.112,30.445,17.207,41.543C496.714,198.39,500.437,217.108,493.642,233.519z M239.635,109.917
	c-2.929-2.928-7.677-2.928-10.606,0c-2.928,2.928-2.928,7.677,0,10.605l11.036,11.036c1.465,1.464,3.384,2.197,5.303,2.197
	c1.919,0,3.838-0.732,5.303-2.197c2.928-2.928,2.928-7.677,0-10.605L239.635,109.917z"/>
<g>
</g>
<g>
</g>
<g>
</g>
<g>
</g>
<g>
</g>
<g>
</g>
<g>
</g>
<g>
</g>
<g>
</g>
<g>
</g>
<g>
</g>
<g>
</g>
<g>
</g>
<g>
</g>
<g>
</g>
</svg>
